Coordinates
version=1
nRows=27
nColumns=12
inDegrees=yes

Units are S.I. units (second, meters, Newtons, ...)
Angles are in degrees

endheader
time	SC_y	SC_z	SC_x	AC_y	AC_z	AC_x	GH_y	GH_z	GH_yy	EL_x	PS_y
       0.0               -46.2         -1.469          22.33          68.44         -5.059          6.528          178.0          72.46          20.58          52.01          143.7
   0.03984               -46.2         -1.463          22.32          68.44         -5.057          6.529          178.0          72.46           20.6          52.02          143.7
   0.07967               -46.2         -1.457          22.32          68.44         -5.055           6.53          178.0          72.46          20.62          52.02          143.7
    0.1195              -46.19          -1.45          22.32          68.44         -5.053          6.531          177.9          72.45          20.65          52.03          143.7
    0.1593              -46.19         -1.443          22.32          68.43          -5.05          6.532          177.9          72.45          20.67          52.03          143.7
    0.1992              -46.18         -1.436          22.31          68.43         -5.048          6.534          177.9          72.45           20.7          52.04          143.6
     0.239              -46.18         -1.428          22.31          68.42         -5.045          6.535          177.9          72.45          20.73          52.04          143.6
    0.2789              -46.17         -1.419          22.31          68.42         -5.042          6.536          177.9          72.45          20.76          52.05          143.6
    0.3187              -46.16          -1.41           22.3          68.42         -5.039          6.538          177.8          72.45          20.79          52.06          143.6
    0.3585              -46.16           -1.4           22.3          68.41         -5.036           6.54          177.8          72.45          20.83          52.06          143.6
    0.3984              -46.15          -1.39          22.29          68.41         -5.033          6.542          177.8          72.45          20.87          52.07          143.6
    0.4382              -46.14         -1.378          22.29           68.4         -5.029          6.544          177.8          72.45          20.91          52.08          143.5
     0.478              -46.14         -1.366          22.29          68.39         -5.025          6.546          177.7          72.44          20.95          52.09          143.5
    0.5179              -46.13         -1.353          22.28          68.39         -5.021          6.548          177.7          72.44           21.0           52.1          143.5
    0.5577              -46.12         -1.339          22.27          68.38         -5.016           6.55          177.7          72.44          21.05          52.11          143.5
    0.5976              -46.11         -1.323          22.27          68.37         -5.011          6.553          177.6          72.44          21.11          52.12          143.4
    0.6374              -46.09         -1.307          22.26          68.37         -5.005          6.556          177.6          72.44          21.17          52.14          143.4
    0.6772              -46.08         -1.288          22.25          68.36         -4.999          6.559          177.5          72.43          21.24          52.15          143.4
    0.7171              -46.07         -1.268          22.25          68.35         -4.993          6.563          177.5          72.43          21.31          52.17          143.3
    0.7569              -46.05         -1.247          22.24          68.34         -4.986          6.567          177.4          72.43          21.39          52.18          143.3
    0.7967              -46.04         -1.223          22.23          68.32         -4.978          6.571          177.4          72.42          21.47           52.2          143.2
    0.8366              -46.02         -1.196          22.22          68.31         -4.969          6.575          177.3          72.42          21.57          52.22          143.2
    0.8764               -46.0         -1.167          22.21           68.3          -4.96           6.58          177.3          72.42          21.68          52.24          143.1
    0.9163              -45.98         -1.135          22.19          68.28         -4.949          6.586          177.2          72.41          21.79          52.27          143.0
    0.9561              -45.95         -1.099          22.18          68.26         -4.937          6.592          177.1          72.41          21.92          52.29          143.0
    0.9959              -45.93         -1.059          22.16          68.24         -4.924          6.599          177.0           72.4          22.07          52.33          142.9
     1.036               -45.9         -1.014          22.14          68.22         -4.909          6.607          176.9           72.4          22.23          52.36          142.8
